<svg width="23" height="12" viewBox="0 0 23 12" fill="none" xmlns="http://www.w3.org/2000/svg">
<path d="M8.65625 11V9.22266C8.3737 9.7194 8.09798 10.084 7.8291 10.3164C7.56022 10.5488 7.25488 10.7357 6.91309 10.877C6.57585 11.0182 6.1224 11.0866 5.55273 11.082C5.27018 11.0775 4.98763 11.0456 4.70508 10.9863C4.42253 10.9225 4.14909 10.8359 3.88477 10.7266C3.62044 10.6126 3.36068 10.4782 3.10547 10.3232C2.85482 10.1637 2.62695 9.98145 2.42188 9.77637C1.91602 9.26595 1.52181 8.67578 1.23926 8.00586C0.961263 7.33138 0.822266 6.59766 0.822266 5.80469C0.822266 5.31706 0.88151 4.84538 1 4.38965C1.11849 3.93392 1.28483 3.50781 1.49902 3.11133C1.71322 2.71484 1.9707 2.35482 2.27148 2.03125C2.57682 1.70312 2.91406 1.42285 3.2832 1.19043C3.6569 0.958008 4.05794 0.777995 4.48633 0.650391C4.91471 0.522786 5.36361 0.458984 5.83301 0.458984C6.37077 0.458984 6.83789 0.531901 7.23438 0.677734C7.63086 0.81901 8.05697 1.08561 8.5127 1.47754H10.0439V3.78809H7.93164C7.72201 3.46452 7.52376 3.22982 7.33691 3.08398C7.15462 2.93815 6.9541 2.81738 6.73535 2.72168C6.52116 2.62598 6.22038 2.57812 5.83301 2.57812C5.4502 2.57812 5.09473 2.66471 4.7666 2.83789C4.43848 3.01107 4.15365 3.24577 3.91211 3.54199C3.67513 3.83366 3.48828 4.18001 3.35156 4.58105C3.21484 4.97754 3.14648 5.38542 3.14648 5.80469C3.14648 6.2194 3.20801 6.61361 3.33105 6.9873C3.4541 7.361 3.64095 7.69824 3.8916 7.99902C4.14225 8.29525 4.43392 8.52311 4.7666 8.68262C5.09928 8.84212 5.45475 8.92188 5.83301 8.92188C6.31608 8.92188 6.73763 8.7806 7.09766 8.49805C7.45768 8.21549 7.71745 7.8304 7.87695 7.34277H5.90137V5.46973H10.7002V11H8.65625ZM17.0166 11.1846C16.5472 11.1846 16.0983 11.1208 15.6699 10.9932C15.2415 10.8656 14.8405 10.6855 14.4668 10.4531C14.0977 10.2207 13.7604 9.94271 13.4551 9.61914C13.1543 9.29102 12.8968 8.92871 12.6826 8.53223C12.4684 8.13118 12.3021 7.7028 12.1836 7.24707C12.0651 6.79134 12.0059 6.3151 12.0059 5.81836C12.0059 5.32161 12.0651 4.84538 12.1836 4.38965C12.3021 3.92936 12.4684 3.50098 12.6826 3.10449C12.8968 2.70345 13.1543 2.34115 13.4551 2.01758C13.7604 1.68945 14.0977 1.40918 14.4668 1.17676C14.8405 0.944336 15.2415 0.764323 15.6699 0.636719C16.0983 0.509115 16.5472 0.445312 17.0166 0.445312C17.486 0.445312 17.9349 0.509115 18.3633 0.636719C18.7962 0.764323 19.1973 0.944336 19.5664 1.17676C19.9401 1.40918 20.2773 1.68945 20.5781 2.01758C20.8835 2.34115 21.1432 2.70345 21.3574 3.10449C21.5762 3.50098 21.7448 3.92936 21.8633 4.38965C21.9818 4.84538 22.041 5.32161 22.041 5.81836C22.041 6.31055 21.9818 6.78678 21.8633 7.24707C21.7448 7.7028 21.5762 8.13118 21.3574 8.53223C21.1432 8.92871 20.8835 9.29102 20.5781 9.61914C20.2773 9.94271 19.9401 10.2207 19.5664 10.4531C19.1973 10.6855 18.7962 10.8656 18.3633 10.9932C17.9349 11.1208 17.486 11.1846 17.0166 11.1846ZM17.0166 9.03809C17.4131 9.03809 17.7754 8.95378 18.1035 8.78516C18.4362 8.61198 18.721 8.37956 18.958 8.08789C19.195 7.79167 19.3773 7.44987 19.5049 7.0625C19.637 6.67057 19.7031 6.25586 19.7031 5.81836C19.7031 5.3763 19.637 4.95931 19.5049 4.56738C19.3727 4.17546 19.1859 3.83366 18.9443 3.54199C18.7074 3.24577 18.4248 3.01335 18.0967 2.84473C17.7686 2.67155 17.4085 2.58496 17.0166 2.58496C16.6247 2.58496 16.2646 2.67155 15.9365 2.84473C15.6084 3.01335 15.3258 3.24577 15.0889 3.54199C14.8519 3.83366 14.665 4.17546 14.5283 4.56738C14.3962 4.95931 14.3301 5.3763 14.3301 5.81836C14.3301 6.25586 14.3962 6.67057 14.5283 7.0625C14.665 7.44987 14.8519 7.79167 15.0889 8.08789C15.3258 8.37956 15.6084 8.61198 15.9365 8.78516C16.2646 8.95378 16.6247 9.03809 17.0166 9.03809Z" fill="white" fill-opacity="0.5"/>
</svg>
